<mxfile host="Electron" agent="Mozilla/5.0 (Windows NT 10.0; Win64; x64) AppleWebKit/537.36 (KHTML, like Gecko) draw.io/27.0.5 Chrome/134.0.6998.205 Electron/35.3.0 Safari/537.36" version="27.0.5">
  <diagram name="Página-1" id="mdi_YNWXgn5-FxODnbmo">
    <mxGraphModel dx="1426" dy="841" grid="1" gridSize="10" guides="1" tooltips="1" connect="1" arrows="1" fold="1" page="1" pageScale="1" pageWidth="827" pageHeight="1169" math="0" shadow="0">
      <root>
        <mxCell id="0" />
        <mxCell id="1" parent="0" />
        <mxCell id="rQHGvYByU5y0crGgfxlI-1" value="" style="rounded=0;whiteSpace=wrap;html=1;" parent="1" vertex="1">
          <mxGeometry x="130" y="170.5" width="654" height="990" as="geometry" />
        </mxCell>
        <mxCell id="rQHGvYByU5y0crGgfxlI-2" value="&lt;font style=&quot;font-size: 26px;&quot;&gt;Sistema de tarjetas de crédito&lt;/font&gt;" style="text;html=1;align=center;verticalAlign=middle;resizable=0;points=[];autosize=1;strokeColor=none;fillColor=none;" parent="1" vertex="1">
          <mxGeometry x="217" y="50" width="370" height="40" as="geometry" />
        </mxCell>
        <mxCell id="rQHGvYByU5y0crGgfxlI-3" value="Solicitar tarjeta" style="ellipse;whiteSpace=wrap;html=1;" parent="1" vertex="1">
          <mxGeometry x="414" y="454" width="126" height="40" as="geometry" />
        </mxCell>
        <mxCell id="rQHGvYByU5y0crGgfxlI-54" style="edgeStyle=orthogonalEdgeStyle;rounded=0;orthogonalLoop=1;jettySize=auto;html=1;exitX=1;exitY=1;exitDx=0;exitDy=0;entryX=0;entryY=0.5;entryDx=0;entryDy=0;" parent="1" source="rQHGvYByU5y0crGgfxlI-4" target="rQHGvYByU5y0crGgfxlI-50" edge="1">
          <mxGeometry relative="1" as="geometry">
            <Array as="points">
              <mxPoint x="319" y="800" />
            </Array>
          </mxGeometry>
        </mxCell>
        <mxCell id="rQHGvYByU5y0crGgfxlI-56" value="&amp;lt;&amp;lt;include&amp;gt;&amp;gt;" style="edgeLabel;html=1;align=center;verticalAlign=middle;resizable=0;points=[];" parent="rQHGvYByU5y0crGgfxlI-54" vertex="1" connectable="0">
          <mxGeometry x="0.6586" y="2" relative="1" as="geometry">
            <mxPoint x="-32" y="2" as="offset" />
          </mxGeometry>
        </mxCell>
        <mxCell id="rQHGvYByU5y0crGgfxlI-4" value="Administrar cliente" style="ellipse;whiteSpace=wrap;html=1;" parent="1" vertex="1">
          <mxGeometry x="211" y="720" width="126" height="40" as="geometry" />
        </mxCell>
        <mxCell id="rQHGvYByU5y0crGgfxlI-90" style="edgeStyle=orthogonalEdgeStyle;rounded=0;orthogonalLoop=1;jettySize=auto;html=1;exitX=1;exitY=0.5;exitDx=0;exitDy=0;entryX=0;entryY=0.5;entryDx=0;entryDy=0;endArrow=none;endFill=0;startArrow=classic;startFill=1;" parent="1" source="rQHGvYByU5y0crGgfxlI-5" target="rQHGvYByU5y0crGgfxlI-84" edge="1">
          <mxGeometry relative="1" as="geometry" />
        </mxCell>
        <mxCell id="rQHGvYByU5y0crGgfxlI-96" value="&amp;lt;&amp;lt;extend&amp;gt;&amp;gt;" style="edgeLabel;html=1;align=center;verticalAlign=middle;resizable=0;points=[];" parent="rQHGvYByU5y0crGgfxlI-90" vertex="1" connectable="0">
          <mxGeometry x="0.3649" y="2" relative="1" as="geometry">
            <mxPoint as="offset" />
          </mxGeometry>
        </mxCell>
        <mxCell id="rQHGvYByU5y0crGgfxlI-92" style="edgeStyle=orthogonalEdgeStyle;rounded=0;orthogonalLoop=1;jettySize=auto;html=1;exitX=0.802;exitY=0.157;exitDx=0;exitDy=0;entryX=0;entryY=0.5;entryDx=0;entryDy=0;exitPerimeter=0;" parent="1" source="rQHGvYByU5y0crGgfxlI-5" target="rQHGvYByU5y0crGgfxlI-83" edge="1">
          <mxGeometry relative="1" as="geometry">
            <Array as="points">
              <mxPoint x="332" y="590" />
            </Array>
          </mxGeometry>
        </mxCell>
        <mxCell id="rQHGvYByU5y0crGgfxlI-98" value="&amp;lt;&amp;lt;include&amp;gt;&amp;gt;" style="edgeLabel;html=1;align=center;verticalAlign=middle;resizable=0;points=[];" parent="rQHGvYByU5y0crGgfxlI-92" vertex="1" connectable="0">
          <mxGeometry x="-0.1659" y="2" relative="1" as="geometry">
            <mxPoint as="offset" />
          </mxGeometry>
        </mxCell>
        <mxCell id="rQHGvYByU5y0crGgfxlI-128" style="edgeStyle=orthogonalEdgeStyle;rounded=0;orthogonalLoop=1;jettySize=auto;html=1;exitX=0.5;exitY=0;exitDx=0;exitDy=0;entryX=0.5;entryY=1;entryDx=0;entryDy=0;" parent="1" source="rQHGvYByU5y0crGgfxlI-5" target="rQHGvYByU5y0crGgfxlI-3" edge="1">
          <mxGeometry relative="1" as="geometry">
            <Array as="points">
              <mxPoint x="277" y="560" />
              <mxPoint x="477" y="560" />
            </Array>
          </mxGeometry>
        </mxCell>
        <mxCell id="rQHGvYByU5y0crGgfxlI-129" value="&amp;lt;&amp;lt;include&amp;gt;&amp;gt;" style="edgeLabel;html=1;align=center;verticalAlign=middle;resizable=0;points=[];" parent="rQHGvYByU5y0crGgfxlI-128" vertex="1" connectable="0">
          <mxGeometry x="-0.317" y="-1" relative="1" as="geometry">
            <mxPoint as="offset" />
          </mxGeometry>
        </mxCell>
        <mxCell id="rQHGvYByU5y0crGgfxlI-5" value="Evaluación de solicitud" style="ellipse;whiteSpace=wrap;html=1;" parent="1" vertex="1">
          <mxGeometry x="187.16" y="597.5" width="180" height="60" as="geometry" />
        </mxCell>
        <mxCell id="rQHGvYByU5y0crGgfxlI-6" value="Realizar transacciones" style="ellipse;whiteSpace=wrap;html=1;" parent="1" vertex="1">
          <mxGeometry x="202.16" y="240" width="150" height="40" as="geometry" />
        </mxCell>
        <mxCell id="rQHGvYByU5y0crGgfxlI-78" style="edgeStyle=orthogonalEdgeStyle;rounded=0;orthogonalLoop=1;jettySize=auto;html=1;exitX=1;exitY=0.5;exitDx=0;exitDy=0;entryX=0;entryY=0.5;entryDx=0;entryDy=0;" parent="1" source="rQHGvYByU5y0crGgfxlI-7" target="rQHGvYByU5y0crGgfxlI-77" edge="1">
          <mxGeometry relative="1" as="geometry" />
        </mxCell>
        <mxCell id="rQHGvYByU5y0crGgfxlI-79" value="&amp;lt;&amp;lt;include&amp;gt;&amp;gt;" style="edgeLabel;html=1;align=center;verticalAlign=middle;resizable=0;points=[];" parent="rQHGvYByU5y0crGgfxlI-78" vertex="1" connectable="0">
          <mxGeometry x="-0.0437" y="-1" relative="1" as="geometry">
            <mxPoint as="offset" />
          </mxGeometry>
        </mxCell>
        <mxCell id="rQHGvYByU5y0crGgfxlI-116" style="edgeStyle=orthogonalEdgeStyle;rounded=0;orthogonalLoop=1;jettySize=auto;html=1;exitX=0;exitY=0.5;exitDx=0;exitDy=0;entryX=1;entryY=0.5;entryDx=0;entryDy=0;" parent="1" source="rQHGvYByU5y0crGgfxlI-7" target="rQHGvYByU5y0crGgfxlI-6" edge="1">
          <mxGeometry relative="1" as="geometry" />
        </mxCell>
        <mxCell id="rQHGvYByU5y0crGgfxlI-7" value="Administración de pagos" style="ellipse;whiteSpace=wrap;html=1;" parent="1" vertex="1">
          <mxGeometry x="397" y="240" width="160" height="40" as="geometry" />
        </mxCell>
        <mxCell id="rQHGvYByU5y0crGgfxlI-118" style="edgeStyle=orthogonalEdgeStyle;rounded=0;orthogonalLoop=1;jettySize=auto;html=1;exitX=1;exitY=1;exitDx=0;exitDy=0;entryX=0;entryY=0.5;entryDx=0;entryDy=0;" parent="1" source="rQHGvYByU5y0crGgfxlI-8" target="rQHGvYByU5y0crGgfxlI-3" edge="1">
          <mxGeometry relative="1" as="geometry" />
        </mxCell>
        <mxCell id="rQHGvYByU5y0crGgfxlI-119" value="&amp;lt;&amp;lt;include&amp;gt;&amp;gt;" style="edgeLabel;html=1;align=center;verticalAlign=middle;resizable=0;points=[];" parent="rQHGvYByU5y0crGgfxlI-118" vertex="1" connectable="0">
          <mxGeometry x="0.1193" y="-2" relative="1" as="geometry">
            <mxPoint x="4" y="-2" as="offset" />
          </mxGeometry>
        </mxCell>
        <mxCell id="rQHGvYByU5y0crGgfxlI-8" value="Gestión de tarjeta" style="ellipse;whiteSpace=wrap;html=1;" parent="1" vertex="1">
          <mxGeometry x="211" y="400" width="126" height="40" as="geometry" />
        </mxCell>
        <mxCell id="rQHGvYByU5y0crGgfxlI-9" value="Gestión de estados de cuenta" style="ellipse;whiteSpace=wrap;html=1;" parent="1" vertex="1">
          <mxGeometry x="190" y="504" width="180" height="40" as="geometry" />
        </mxCell>
        <mxCell id="rQHGvYByU5y0crGgfxlI-73" style="edgeStyle=orthogonalEdgeStyle;rounded=0;orthogonalLoop=1;jettySize=auto;html=1;exitX=1;exitY=1;exitDx=0;exitDy=0;entryX=0;entryY=0.5;entryDx=0;entryDy=0;" parent="1" source="rQHGvYByU5y0crGgfxlI-10" target="rQHGvYByU5y0crGgfxlI-72" edge="1">
          <mxGeometry relative="1" as="geometry">
            <Array as="points">
              <mxPoint x="327" y="920" />
            </Array>
            <mxPoint x="480" y="930" as="targetPoint" />
          </mxGeometry>
        </mxCell>
        <mxCell id="rQHGvYByU5y0crGgfxlI-74" value="&amp;lt;&amp;lt;include&amp;gt;&amp;gt;" style="edgeLabel;html=1;align=center;verticalAlign=middle;resizable=0;points=[];" parent="rQHGvYByU5y0crGgfxlI-73" vertex="1" connectable="0">
          <mxGeometry x="0.034" y="-3" relative="1" as="geometry">
            <mxPoint x="6" y="-6" as="offset" />
          </mxGeometry>
        </mxCell>
        <mxCell id="rQHGvYByU5y0crGgfxlI-123" style="edgeStyle=orthogonalEdgeStyle;rounded=0;orthogonalLoop=1;jettySize=auto;html=1;exitX=1;exitY=0.5;exitDx=0;exitDy=0;entryX=0;entryY=0.5;entryDx=0;entryDy=0;" parent="1" source="rQHGvYByU5y0crGgfxlI-10" target="rQHGvYByU5y0crGgfxlI-122" edge="1">
          <mxGeometry relative="1" as="geometry" />
        </mxCell>
        <mxCell id="rQHGvYByU5y0crGgfxlI-124" value="&amp;lt;&amp;lt;include&amp;gt;&amp;gt;" style="edgeLabel;html=1;align=center;verticalAlign=middle;resizable=0;points=[];" parent="rQHGvYByU5y0crGgfxlI-123" vertex="1" connectable="0">
          <mxGeometry x="-0.0792" y="-4" relative="1" as="geometry">
            <mxPoint x="-3" y="6" as="offset" />
          </mxGeometry>
        </mxCell>
        <mxCell id="rQHGvYByU5y0crGgfxlI-10" value="Atención al cliente" style="ellipse;whiteSpace=wrap;html=1;" parent="1" vertex="1">
          <mxGeometry x="207.16" y="830" width="140" height="40" as="geometry" />
        </mxCell>
        <mxCell id="rQHGvYByU5y0crGgfxlI-19" value="Titular de la&lt;div&gt;tarjeta&lt;/div&gt;" style="shape=umlActor;verticalLabelPosition=bottom;verticalAlign=top;html=1;outlineConnect=0;" parent="1" vertex="1">
          <mxGeometry x="40" y="326" width="30" height="60" as="geometry" />
        </mxCell>
        <mxCell id="rQHGvYByU5y0crGgfxlI-20" value="" style="endArrow=none;html=1;rounded=0;entryX=0;entryY=0.5;entryDx=0;entryDy=0;endFill=0;" parent="1" target="rQHGvYByU5y0crGgfxlI-6" edge="1">
          <mxGeometry width="50" height="50" relative="1" as="geometry">
            <mxPoint x="80" y="220" as="sourcePoint" />
            <mxPoint x="216.9999999999991" y="50" as="targetPoint" />
          </mxGeometry>
        </mxCell>
        <mxCell id="rQHGvYByU5y0crGgfxlI-21" value="" style="endArrow=none;html=1;rounded=0;entryX=0;entryY=0.5;entryDx=0;entryDy=0;endFill=0;" parent="1" target="rQHGvYByU5y0crGgfxlI-6" edge="1">
          <mxGeometry width="50" height="50" relative="1" as="geometry">
            <mxPoint x="80" y="360" as="sourcePoint" />
            <mxPoint x="120" y="150" as="targetPoint" />
          </mxGeometry>
        </mxCell>
        <mxCell id="rQHGvYByU5y0crGgfxlI-24" value="" style="endArrow=none;html=1;rounded=0;endFill=0;entryX=0;entryY=0.5;entryDx=0;entryDy=0;" parent="1" target="rQHGvYByU5y0crGgfxlI-8" edge="1">
          <mxGeometry width="50" height="50" relative="1" as="geometry">
            <mxPoint x="80" y="360" as="sourcePoint" />
            <mxPoint x="210" y="400" as="targetPoint" />
          </mxGeometry>
        </mxCell>
        <mxCell id="rQHGvYByU5y0crGgfxlI-25" value="" style="endArrow=none;html=1;rounded=0;endFill=0;entryX=0;entryY=0.5;entryDx=0;entryDy=0;" parent="1" target="rQHGvYByU5y0crGgfxlI-9" edge="1">
          <mxGeometry width="50" height="50" relative="1" as="geometry">
            <mxPoint x="80" y="360" as="sourcePoint" />
            <mxPoint x="217" y="330" as="targetPoint" />
          </mxGeometry>
        </mxCell>
        <mxCell id="rQHGvYByU5y0crGgfxlI-26" value="Administrador" style="shape=umlActor;verticalLabelPosition=bottom;verticalAlign=top;html=1;outlineConnect=0;" parent="1" vertex="1">
          <mxGeometry x="40" y="800" width="30" height="60" as="geometry" />
        </mxCell>
        <mxCell id="rQHGvYByU5y0crGgfxlI-27" value="Agente de atención&lt;div&gt;al cliente&lt;/div&gt;" style="shape=umlActor;verticalLabelPosition=bottom;verticalAlign=top;html=1;outlineConnect=0;" parent="1" vertex="1">
          <mxGeometry x="40" y="940" width="30" height="60" as="geometry" />
        </mxCell>
        <mxCell id="rQHGvYByU5y0crGgfxlI-36" value="" style="endArrow=classic;startArrow=classic;html=1;rounded=0;" parent="1" edge="1">
          <mxGeometry width="50" height="50" relative="1" as="geometry">
            <mxPoint x="55" y="920" as="sourcePoint" />
            <mxPoint x="55" y="890" as="targetPoint" />
          </mxGeometry>
        </mxCell>
        <mxCell id="rQHGvYByU5y0crGgfxlI-37" value="" style="endArrow=none;html=1;rounded=0;endFill=0;entryX=0;entryY=0.5;entryDx=0;entryDy=0;" parent="1" target="rQHGvYByU5y0crGgfxlI-4" edge="1">
          <mxGeometry width="50" height="50" relative="1" as="geometry">
            <mxPoint x="80" y="840" as="sourcePoint" />
            <mxPoint x="200" y="570" as="targetPoint" />
          </mxGeometry>
        </mxCell>
        <mxCell id="rQHGvYByU5y0crGgfxlI-40" value="" style="endArrow=none;html=1;rounded=0;endFill=0;entryX=0;entryY=0.5;entryDx=0;entryDy=0;" parent="1" target="rQHGvYByU5y0crGgfxlI-8" edge="1">
          <mxGeometry width="50" height="50" relative="1" as="geometry">
            <mxPoint x="80" y="360" as="sourcePoint" />
            <mxPoint x="90" y="320" as="targetPoint" />
          </mxGeometry>
        </mxCell>
        <mxCell id="rQHGvYByU5y0crGgfxlI-41" value="" style="endArrow=none;html=1;rounded=0;endFill=0;entryX=0;entryY=0.5;entryDx=0;entryDy=0;" parent="1" target="rQHGvYByU5y0crGgfxlI-10" edge="1">
          <mxGeometry width="50" height="50" relative="1" as="geometry">
            <mxPoint x="80" y="840" as="sourcePoint" />
            <mxPoint x="200" y="570" as="targetPoint" />
          </mxGeometry>
        </mxCell>
        <mxCell id="rQHGvYByU5y0crGgfxlI-42" value="" style="endArrow=none;html=1;rounded=0;endFill=0;entryX=0;entryY=0.5;entryDx=0;entryDy=0;" parent="1" target="rQHGvYByU5y0crGgfxlI-9" edge="1">
          <mxGeometry width="50" height="50" relative="1" as="geometry">
            <mxPoint x="80" y="840" as="sourcePoint" />
            <mxPoint x="200" y="560" as="targetPoint" />
          </mxGeometry>
        </mxCell>
        <mxCell id="rQHGvYByU5y0crGgfxlI-44" value="Autenticación" style="ellipse;whiteSpace=wrap;html=1;" parent="1" vertex="1">
          <mxGeometry x="217" y="1000" width="126" height="40" as="geometry" />
        </mxCell>
        <mxCell id="rQHGvYByU5y0crGgfxlI-50" value="Administrar datos del cliente" style="ellipse;whiteSpace=wrap;html=1;" parent="1" vertex="1">
          <mxGeometry x="414" y="780" width="126" height="50" as="geometry" />
        </mxCell>
        <mxCell id="rQHGvYByU5y0crGgfxlI-58" value="Establecimiento" style="shape=umlActor;verticalLabelPosition=bottom;verticalAlign=top;html=1;outlineConnect=0;" parent="1" vertex="1">
          <mxGeometry x="40" y="180" width="30" height="60" as="geometry" />
        </mxCell>
        <mxCell id="rQHGvYByU5y0crGgfxlI-75" style="edgeStyle=orthogonalEdgeStyle;rounded=0;orthogonalLoop=1;jettySize=auto;html=1;exitX=0;exitY=0.5;exitDx=0;exitDy=0;entryX=1;entryY=0;entryDx=0;entryDy=0;" parent="1" source="rQHGvYByU5y0crGgfxlI-60" target="rQHGvYByU5y0crGgfxlI-7" edge="1">
          <mxGeometry relative="1" as="geometry" />
        </mxCell>
        <mxCell id="rQHGvYByU5y0crGgfxlI-76" value="&amp;lt;&amp;lt;extend&amp;gt;&amp;gt;" style="edgeLabel;html=1;align=center;verticalAlign=middle;resizable=0;points=[];" parent="rQHGvYByU5y0crGgfxlI-75" vertex="1" connectable="0">
          <mxGeometry x="0.0323" y="5" relative="1" as="geometry">
            <mxPoint x="21" y="-5" as="offset" />
          </mxGeometry>
        </mxCell>
        <mxCell id="rQHGvYByU5y0crGgfxlI-60" value="Gestión de mora" style="ellipse;whiteSpace=wrap;html=1;" parent="1" vertex="1">
          <mxGeometry x="618.58" y="190" width="126" height="40" as="geometry" />
        </mxCell>
        <mxCell id="rQHGvYByU5y0crGgfxlI-61" value="Sistema de&lt;div&gt;&amp;nbsp;verificación&lt;div&gt;de créditos&lt;/div&gt;&lt;/div&gt;" style="shape=umlActor;verticalLabelPosition=bottom;verticalAlign=top;html=1;outlineConnect=0;" parent="1" vertex="1">
          <mxGeometry x="40" y="642.5" width="30" height="60" as="geometry" />
        </mxCell>
        <mxCell id="rQHGvYByU5y0crGgfxlI-62" value="Procesador de&lt;div&gt;pagos&lt;/div&gt;" style="shape=umlActor;verticalLabelPosition=bottom;verticalAlign=top;html=1;outlineConnect=0;" parent="1" vertex="1">
          <mxGeometry x="40" y="494" width="30" height="60" as="geometry" />
        </mxCell>
        <mxCell id="rQHGvYByU5y0crGgfxlI-63" value="" style="rounded=0;whiteSpace=wrap;html=1;" parent="1" vertex="1">
          <mxGeometry x="40" y="637.5" width="30" height="20" as="geometry" />
        </mxCell>
        <mxCell id="rQHGvYByU5y0crGgfxlI-64" value="" style="rounded=0;whiteSpace=wrap;html=1;" parent="1" vertex="1">
          <mxGeometry x="40" y="490" width="30" height="20" as="geometry" />
        </mxCell>
        <mxCell id="rQHGvYByU5y0crGgfxlI-67" value="" style="endArrow=none;html=1;rounded=0;entryX=0;entryY=0.5;entryDx=0;entryDy=0;" parent="1" target="rQHGvYByU5y0crGgfxlI-5" edge="1">
          <mxGeometry width="50" height="50" relative="1" as="geometry">
            <mxPoint x="80" y="670" as="sourcePoint" />
            <mxPoint x="130" y="430" as="targetPoint" />
          </mxGeometry>
        </mxCell>
        <mxCell id="rQHGvYByU5y0crGgfxlI-69" value="" style="endArrow=none;html=1;rounded=0;entryX=0;entryY=0.5;entryDx=0;entryDy=0;" parent="1" target="rQHGvYByU5y0crGgfxlI-6" edge="1">
          <mxGeometry width="50" height="50" relative="1" as="geometry">
            <mxPoint x="80" y="520" as="sourcePoint" />
            <mxPoint x="130" y="331" as="targetPoint" />
          </mxGeometry>
        </mxCell>
        <mxCell id="8Y0cF5bOFFguQtQeXFPR-27" style="edgeStyle=orthogonalEdgeStyle;rounded=0;orthogonalLoop=1;jettySize=auto;html=1;exitX=1;exitY=0;exitDx=0;exitDy=0;entryX=0;entryY=0.5;entryDx=0;entryDy=0;" parent="1" source="rQHGvYByU5y0crGgfxlI-72" target="8Y0cF5bOFFguQtQeXFPR-24" edge="1">
          <mxGeometry relative="1" as="geometry" />
        </mxCell>
        <mxCell id="8Y0cF5bOFFguQtQeXFPR-28" style="edgeStyle=orthogonalEdgeStyle;rounded=0;orthogonalLoop=1;jettySize=auto;html=1;exitX=1;exitY=0.5;exitDx=0;exitDy=0;entryX=0;entryY=0.5;entryDx=0;entryDy=0;" parent="1" source="rQHGvYByU5y0crGgfxlI-72" target="8Y0cF5bOFFguQtQeXFPR-25" edge="1">
          <mxGeometry relative="1" as="geometry" />
        </mxCell>
        <mxCell id="8Y0cF5bOFFguQtQeXFPR-29" style="edgeStyle=orthogonalEdgeStyle;rounded=0;orthogonalLoop=1;jettySize=auto;html=1;exitX=1;exitY=1;exitDx=0;exitDy=0;entryX=0;entryY=0.5;entryDx=0;entryDy=0;" parent="1" source="rQHGvYByU5y0crGgfxlI-72" target="8Y0cF5bOFFguQtQeXFPR-26" edge="1">
          <mxGeometry relative="1" as="geometry">
            <Array as="points">
              <mxPoint x="560" y="934" />
              <mxPoint x="560" y="990" />
            </Array>
          </mxGeometry>
        </mxCell>
        <mxCell id="rQHGvYByU5y0crGgfxlI-72" value="Aviso de atención&lt;div&gt;al cliente&lt;/div&gt;" style="ellipse;whiteSpace=wrap;html=1;" parent="1" vertex="1">
          <mxGeometry x="414" y="900" width="126" height="40" as="geometry" />
        </mxCell>
        <mxCell id="rQHGvYByU5y0crGgfxlI-77" value="Pagos automáticos" style="ellipse;whiteSpace=wrap;html=1;" parent="1" vertex="1">
          <mxGeometry x="618.58" y="320" width="126" height="40" as="geometry" />
        </mxCell>
        <mxCell id="rQHGvYByU5y0crGgfxlI-126" style="edgeStyle=orthogonalEdgeStyle;rounded=0;orthogonalLoop=1;jettySize=auto;html=1;exitX=1;exitY=0.5;exitDx=0;exitDy=0;entryX=0;entryY=0.5;entryDx=0;entryDy=0;" parent="1" source="rQHGvYByU5y0crGgfxlI-83" target="rQHGvYByU5y0crGgfxlI-125" edge="1">
          <mxGeometry relative="1" as="geometry" />
        </mxCell>
        <mxCell id="rQHGvYByU5y0crGgfxlI-127" value="&amp;lt;&amp;lt;include&amp;gt;&amp;gt;" style="edgeLabel;html=1;align=center;verticalAlign=middle;resizable=0;points=[];" parent="rQHGvYByU5y0crGgfxlI-126" vertex="1" connectable="0">
          <mxGeometry x="-0.1959" relative="1" as="geometry">
            <mxPoint as="offset" />
          </mxGeometry>
        </mxCell>
        <mxCell id="RZK7aWPq1DUqUVsKAJol-2" style="edgeStyle=orthogonalEdgeStyle;rounded=0;orthogonalLoop=1;jettySize=auto;html=1;exitX=1;exitY=1;exitDx=0;exitDy=0;entryX=0;entryY=0.5;entryDx=0;entryDy=0;" parent="1" source="rQHGvYByU5y0crGgfxlI-83" target="RZK7aWPq1DUqUVsKAJol-1" edge="1">
          <mxGeometry relative="1" as="geometry" />
        </mxCell>
        <mxCell id="RZK7aWPq1DUqUVsKAJol-3" value="&amp;lt;&amp;lt;Include&amp;gt;&amp;gt;" style="edgeLabel;html=1;align=center;verticalAlign=middle;resizable=0;points=[];" parent="RZK7aWPq1DUqUVsKAJol-2" vertex="1" connectable="0">
          <mxGeometry x="-0.1547" y="-3" relative="1" as="geometry">
            <mxPoint as="offset" />
          </mxGeometry>
        </mxCell>
        <mxCell id="rQHGvYByU5y0crGgfxlI-83" value="Evaluar historial crediticio" style="ellipse;whiteSpace=wrap;html=1;" parent="1" vertex="1">
          <mxGeometry x="414" y="602.5" width="126" height="40" as="geometry" />
        </mxCell>
        <mxCell id="rQHGvYByU5y0crGgfxlI-84" value="Emisión de tarjeta&lt;div&gt;Digital&lt;/div&gt;" style="ellipse;whiteSpace=wrap;html=1;" parent="1" vertex="1">
          <mxGeometry x="414" y="657.5" width="126" height="40" as="geometry" />
        </mxCell>
        <mxCell id="rQHGvYByU5y0crGgfxlI-106" style="edgeStyle=orthogonalEdgeStyle;rounded=0;orthogonalLoop=1;jettySize=auto;html=1;exitX=0;exitY=0.5;exitDx=0;exitDy=0;entryX=1;entryY=0.5;entryDx=0;entryDy=0;" parent="1" source="rQHGvYByU5y0crGgfxlI-104" target="rQHGvYByU5y0crGgfxlI-4" edge="1">
          <mxGeometry relative="1" as="geometry" />
        </mxCell>
        <mxCell id="rQHGvYByU5y0crGgfxlI-107" value="&amp;lt;&amp;lt;extend&amp;gt;&amp;gt;" style="edgeLabel;html=1;align=center;verticalAlign=middle;resizable=0;points=[];" parent="rQHGvYByU5y0crGgfxlI-106" vertex="1" connectable="0">
          <mxGeometry x="-0.3317" y="-3" relative="1" as="geometry">
            <mxPoint x="-8" y="3" as="offset" />
          </mxGeometry>
        </mxCell>
        <mxCell id="rQHGvYByU5y0crGgfxlI-104" value="Asociar tarjetas" style="ellipse;whiteSpace=wrap;html=1;" parent="1" vertex="1">
          <mxGeometry x="414" y="720" width="126" height="40" as="geometry" />
        </mxCell>
        <mxCell id="rQHGvYByU5y0crGgfxlI-122" value="Registro y&amp;nbsp;&lt;div&gt;seguimiento&lt;/div&gt;" style="ellipse;whiteSpace=wrap;html=1;" parent="1" vertex="1">
          <mxGeometry x="422" y="840" width="110" height="40" as="geometry" />
        </mxCell>
        <mxCell id="rQHGvYByU5y0crGgfxlI-125" value="Aprobación" style="ellipse;whiteSpace=wrap;html=1;" parent="1" vertex="1">
          <mxGeometry x="611.58" y="539" width="140" height="46" as="geometry" />
        </mxCell>
        <mxCell id="qtZjzMHfFFbKF_uTYHAh-1" value="" style="endArrow=none;html=1;rounded=0;entryX=0;entryY=0.5;entryDx=0;entryDy=0;" parent="1" target="rQHGvYByU5y0crGgfxlI-44" edge="1">
          <mxGeometry width="50" height="50" relative="1" as="geometry">
            <mxPoint x="80" y="840" as="sourcePoint" />
            <mxPoint x="130" y="790" as="targetPoint" />
          </mxGeometry>
        </mxCell>
        <mxCell id="qtZjzMHfFFbKF_uTYHAh-2" value="" style="endArrow=none;html=1;rounded=0;endFill=0;entryX=0;entryY=0.5;entryDx=0;entryDy=0;" parent="1" target="rQHGvYByU5y0crGgfxlI-8" edge="1">
          <mxGeometry width="50" height="50" relative="1" as="geometry">
            <mxPoint x="80" y="840" as="sourcePoint" />
            <mxPoint x="211" y="420" as="targetPoint" />
          </mxGeometry>
        </mxCell>
        <mxCell id="RZK7aWPq1DUqUVsKAJol-1" value="Rechazo" style="ellipse;whiteSpace=wrap;html=1;" parent="1" vertex="1">
          <mxGeometry x="611.5799999999999" y="642.5" width="140" height="46" as="geometry" />
        </mxCell>
        <mxCell id="Yv7MvliNSQfiZZxujhOn-6" value="" style="group" parent="1" vertex="1" connectable="0">
          <mxGeometry x="220" y="1290" width="141.99999999999994" height="90" as="geometry" />
        </mxCell>
        <mxCell id="8Y0cF5bOFFguQtQeXFPR-12" style="edgeStyle=orthogonalEdgeStyle;rounded=0;orthogonalLoop=1;jettySize=auto;html=1;exitX=0.5;exitY=0;exitDx=0;exitDy=0;" parent="Yv7MvliNSQfiZZxujhOn-6" source="Yv7MvliNSQfiZZxujhOn-3" edge="1">
          <mxGeometry relative="1" as="geometry">
            <mxPoint x="71" y="-80" as="targetPoint" />
          </mxGeometry>
        </mxCell>
        <mxCell id="8Y0cF5bOFFguQtQeXFPR-13" value="Información&lt;div&gt;del solicitante&lt;/div&gt;" style="edgeLabel;html=1;align=center;verticalAlign=middle;resizable=0;points=[];" parent="8Y0cF5bOFFguQtQeXFPR-12" vertex="1" connectable="0">
          <mxGeometry x="-0.1056" y="6" relative="1" as="geometry">
            <mxPoint x="6" y="-4" as="offset" />
          </mxGeometry>
        </mxCell>
        <mxCell id="Yv7MvliNSQfiZZxujhOn-3" value="3.1" style="swimlane;whiteSpace=wrap;html=1;" parent="Yv7MvliNSQfiZZxujhOn-6" vertex="1">
          <mxGeometry width="142" height="90" as="geometry" />
        </mxCell>
        <mxCell id="Yv7MvliNSQfiZZxujhOn-5" value="Solicitar tarjeta" style="text;html=1;align=center;verticalAlign=middle;resizable=0;points=[];autosize=1;strokeColor=none;fillColor=none;" parent="Yv7MvliNSQfiZZxujhOn-6" vertex="1">
          <mxGeometry x="20.420000000000016" y="40" width="100" height="30" as="geometry" />
        </mxCell>
        <mxCell id="8Y0cF5bOFFguQtQeXFPR-1" value="" style="group" parent="1" vertex="1" connectable="0">
          <mxGeometry x="220" y="1430" width="141.99999999999994" height="90" as="geometry" />
        </mxCell>
        <mxCell id="8Y0cF5bOFFguQtQeXFPR-2" value="3.2" style="swimlane;whiteSpace=wrap;html=1;" parent="8Y0cF5bOFFguQtQeXFPR-1" vertex="1">
          <mxGeometry width="142" height="90" as="geometry" />
        </mxCell>
        <mxCell id="8Y0cF5bOFFguQtQeXFPR-21" value="" style="endArrow=classic;html=1;rounded=0;" parent="8Y0cF5bOFFguQtQeXFPR-2" edge="1">
          <mxGeometry width="50" height="50" relative="1" as="geometry">
            <mxPoint y="30" as="sourcePoint" />
            <mxPoint x="-130" y="30" as="targetPoint" />
          </mxGeometry>
        </mxCell>
        <mxCell id="8Y0cF5bOFFguQtQeXFPR-22" value="Confirmación de&lt;div&gt;bloqueo&lt;/div&gt;" style="edgeLabel;html=1;align=center;verticalAlign=middle;resizable=0;points=[];" parent="8Y0cF5bOFFguQtQeXFPR-21" vertex="1" connectable="0">
          <mxGeometry x="-0.1385" y="1" relative="1" as="geometry">
            <mxPoint x="-4" as="offset" />
          </mxGeometry>
        </mxCell>
        <mxCell id="8Y0cF5bOFFguQtQeXFPR-3" value="Bloquear tarjeta" style="text;html=1;align=center;verticalAlign=middle;resizable=0;points=[];autosize=1;strokeColor=none;fillColor=none;" parent="8Y0cF5bOFFguQtQeXFPR-1" vertex="1">
          <mxGeometry x="15.420000000000016" y="40" width="110" height="30" as="geometry" />
        </mxCell>
        <mxCell id="8Y0cF5bOFFguQtQeXFPR-7" style="edgeStyle=orthogonalEdgeStyle;rounded=0;orthogonalLoop=1;jettySize=auto;html=1;exitX=0;exitY=0.5;exitDx=0;exitDy=0;entryX=1;entryY=0.5;entryDx=0;entryDy=0;" parent="1" source="8Y0cF5bOFFguQtQeXFPR-6" target="rQHGvYByU5y0crGgfxlI-8" edge="1">
          <mxGeometry relative="1" as="geometry" />
        </mxCell>
        <mxCell id="8Y0cF5bOFFguQtQeXFPR-8" value="&amp;lt;&amp;lt;exclude&amp;gt;&amp;gt;" style="edgeLabel;html=1;align=center;verticalAlign=middle;resizable=0;points=[];" parent="8Y0cF5bOFFguQtQeXFPR-7" vertex="1" connectable="0">
          <mxGeometry x="-0.106" y="-2" relative="1" as="geometry">
            <mxPoint y="1" as="offset" />
          </mxGeometry>
        </mxCell>
        <mxCell id="8Y0cF5bOFFguQtQeXFPR-6" value="Bloquear Tarjeta" style="ellipse;whiteSpace=wrap;html=1;" parent="1" vertex="1">
          <mxGeometry x="414" y="360" width="126" height="40" as="geometry" />
        </mxCell>
        <mxCell id="8Y0cF5bOFFguQtQeXFPR-9" value="D2 | BD Tarjetas" style="rounded=0;whiteSpace=wrap;html=1;" parent="1" vertex="1">
          <mxGeometry x="450" y="1390" width="126" height="30" as="geometry" />
        </mxCell>
        <mxCell id="8Y0cF5bOFFguQtQeXFPR-10" style="edgeStyle=orthogonalEdgeStyle;rounded=0;orthogonalLoop=1;jettySize=auto;html=1;exitX=1;exitY=0.5;exitDx=0;exitDy=0;entryX=0;entryY=0.5;entryDx=0;entryDy=0;startArrow=classicThin;startFill=1;" parent="1" source="8Y0cF5bOFFguQtQeXFPR-2" target="8Y0cF5bOFFguQtQeXFPR-9" edge="1">
          <mxGeometry relative="1" as="geometry" />
        </mxCell>
        <mxCell id="8Y0cF5bOFFguQtQeXFPR-11" value="Información&lt;div&gt;de&amp;nbsp;&lt;/div&gt;&lt;div&gt;la tarjeta&lt;/div&gt;" style="edgeLabel;html=1;align=center;verticalAlign=middle;resizable=0;points=[];" parent="8Y0cF5bOFFguQtQeXFPR-10" vertex="1" connectable="0">
          <mxGeometry x="-0.0606" y="-1" relative="1" as="geometry">
            <mxPoint as="offset" />
          </mxGeometry>
        </mxCell>
        <mxCell id="8Y0cF5bOFFguQtQeXFPR-14" value="" style="endArrow=classic;html=1;rounded=0;" parent="1" edge="1">
          <mxGeometry width="50" height="50" relative="1" as="geometry">
            <mxPoint x="90" y="1340" as="sourcePoint" />
            <mxPoint x="220" y="1340" as="targetPoint" />
          </mxGeometry>
        </mxCell>
        <mxCell id="8Y0cF5bOFFguQtQeXFPR-15" value="Datps del&lt;div&gt;solicitante&lt;/div&gt;" style="edgeLabel;html=1;align=center;verticalAlign=middle;resizable=0;points=[];" parent="8Y0cF5bOFFguQtQeXFPR-14" vertex="1" connectable="0">
          <mxGeometry x="-0.0154" y="1" relative="1" as="geometry">
            <mxPoint as="offset" />
          </mxGeometry>
        </mxCell>
        <mxCell id="8Y0cF5bOFFguQtQeXFPR-16" value="" style="endArrow=classic;html=1;rounded=0;" parent="1" edge="1">
          <mxGeometry width="50" height="50" relative="1" as="geometry">
            <mxPoint x="90" y="1510" as="sourcePoint" />
            <mxPoint x="220" y="1510" as="targetPoint" />
          </mxGeometry>
        </mxCell>
        <mxCell id="8Y0cF5bOFFguQtQeXFPR-17" value="Solicitud de bloqueo&lt;div&gt;&lt;br&gt;&lt;/div&gt;&lt;div&gt;Datos de tarjeta&lt;/div&gt;" style="edgeLabel;html=1;align=center;verticalAlign=middle;resizable=0;points=[];" parent="8Y0cF5bOFFguQtQeXFPR-16" vertex="1" connectable="0">
          <mxGeometry x="-0.0154" y="1" relative="1" as="geometry">
            <mxPoint as="offset" />
          </mxGeometry>
        </mxCell>
        <mxCell id="8Y0cF5bOFFguQtQeXFPR-24" value="SMS" style="ellipse;whiteSpace=wrap;html=1;" parent="1" vertex="1">
          <mxGeometry x="621.58" y="850" width="120" height="40" as="geometry" />
        </mxCell>
        <mxCell id="8Y0cF5bOFFguQtQeXFPR-25" value="Correo" style="ellipse;whiteSpace=wrap;html=1;" parent="1" vertex="1">
          <mxGeometry x="621.58" y="910" width="120" height="40" as="geometry" />
        </mxCell>
        <mxCell id="8Y0cF5bOFFguQtQeXFPR-26" value="Chat" style="ellipse;whiteSpace=wrap;html=1;" parent="1" vertex="1">
          <mxGeometry x="621.58" y="970" width="120" height="40" as="geometry" />
        </mxCell>
        <mxCell id="8Y0cF5bOFFguQtQeXFPR-30" value="" style="endArrow=none;html=1;rounded=0;endFill=0;entryX=0;entryY=0.5;entryDx=0;entryDy=0;" parent="1" target="rQHGvYByU5y0crGgfxlI-5" edge="1">
          <mxGeometry width="50" height="50" relative="1" as="geometry">
            <mxPoint x="80" y="840" as="sourcePoint" />
            <mxPoint x="187" y="628" as="targetPoint" />
          </mxGeometry>
        </mxCell>
      </root>
    </mxGraphModel>
  </diagram>
</mxfile>
